<svg width="19" height="19" viewBox="0 0 19 19" fill="none" xmlns="http://www.w3.org/2000/svg">
<path d="M5 15.5C5.41667 15.5 5.77083 15.3542 6.0625 15.0625C6.35417 14.7708 6.5 14.4167 6.5 14C6.5 13.5833 6.35417 13.2292 6.0625 12.9375C5.77083 12.6458 5.41667 12.5 5 12.5C4.58333 12.5 4.22917 12.6458 3.9375 12.9375C3.64583 13.2292 3.5 13.5833 3.5 14C3.5 14.4167 3.64583 14.7708 3.9375 15.0625C4.22917 15.3542 4.58333 15.5 5 15.5V15.5M5 6.5C5.41667 6.5 5.77083 6.35417 6.0625 6.0625C6.35417 5.77083 6.5 5.41667 6.5 5C6.5 4.58333 6.35417 4.22917 6.0625 3.9375C5.77083 3.64583 5.41667 3.5 5 3.5C4.58333 3.5 4.22917 3.64583 3.9375 3.9375C3.64583 4.22917 3.5 4.58333 3.5 5C3.5 5.41667 3.64583 5.77083 3.9375 6.0625C4.22917 6.35417 4.58333 6.5 5 6.5V6.5M9.5 11C9.91667 11 10.2708 10.8542 10.5625 10.5625C10.8542 10.2708 11 9.91667 11 9.5C11 9.08333 10.8542 8.72917 10.5625 8.4375C10.2708 8.14583 9.91667 8 9.5 8C9.08333 8 8.72917 8.14583 8.4375 8.4375C8.14583 8.72917 8 9.08333 8 9.5C8 9.91667 8.14583 10.2708 8.4375 10.5625C8.72917 10.8542 9.08333 11 9.5 11V11M14 15.5C14.4167 15.5 14.7708 15.3542 15.0625 15.0625C15.3542 14.7708 15.5 14.4167 15.5 14C15.5 13.5833 15.3542 13.2292 15.0625 12.9375C14.7708 12.6458 14.4167 12.5 14 12.5C13.5833 12.5 13.2292 12.6458 12.9375 12.9375C12.6458 13.2292 12.5 13.5833 12.5 14C12.5 14.4167 12.6458 14.7708 12.9375 15.0625C13.2292 15.3542 13.5833 15.5 14 15.5V15.5M14 6.5C14.4167 6.5 14.7708 6.35417 15.0625 6.0625C15.3542 5.77083 15.5 5.41667 15.5 5C15.5 4.58333 15.3542 4.22917 15.0625 3.9375C14.7708 3.64583 14.4167 3.5 14 3.5C13.5833 3.5 13.2292 3.64583 12.9375 3.9375C12.6458 4.22917 12.5 4.58333 12.5 5C12.5 5.41667 12.6458 5.77083 12.9375 6.0625C13.2292 6.35417 13.5833 6.5 14 6.5V6.5M2.5 18.5C1.95 18.5 1.47917 18.3042 1.0875 17.9125C0.695833 17.5208 0.5 17.05 0.5 16.5V2.5C0.5 1.95 0.695833 1.47917 1.0875 1.0875C1.47917 0.695833 1.95 0.5 2.5 0.5H16.5C17.05 0.5 17.5208 0.695833 17.9125 1.0875C18.3042 1.47917 18.5 1.95 18.5 2.5V16.5C18.5 17.05 18.3042 17.5208 17.9125 17.9125C17.5208 18.3042 17.05 18.5 16.5 18.5H2.5V18.5" fill="#E11D48"/>
<path d="M5 15.5C5.41667 15.5 5.77083 15.3542 6.0625 15.0625C6.35417 14.7708 6.5 14.4167 6.5 14C6.5 13.5833 6.35417 13.2292 6.0625 12.9375C5.77083 12.6458 5.41667 12.5 5 12.5C4.58333 12.5 4.22917 12.6458 3.9375 12.9375C3.64583 13.2292 3.5 13.5833 3.5 14C3.5 14.4167 3.64583 14.7708 3.9375 15.0625C4.22917 15.3542 4.58333 15.5 5 15.5V15.5M5 6.5C5.41667 6.5 5.77083 6.35417 6.0625 6.0625C6.35417 5.77083 6.5 5.41667 6.5 5C6.5 4.58333 6.35417 4.22917 6.0625 3.9375C5.77083 3.64583 5.41667 3.5 5 3.5C4.58333 3.5 4.22917 3.64583 3.9375 3.9375C3.64583 4.22917 3.5 4.58333 3.5 5C3.5 5.41667 3.64583 5.77083 3.9375 6.0625C4.22917 6.35417 4.58333 6.5 5 6.5V6.5M9.5 11C9.91667 11 10.2708 10.8542 10.5625 10.5625C10.8542 10.2708 11 9.91667 11 9.5C11 9.08333 10.8542 8.72917 10.5625 8.4375C10.2708 8.14583 9.91667 8 9.5 8C9.08333 8 8.72917 8.14583 8.4375 8.4375C8.14583 8.72917 8 9.08333 8 9.5C8 9.91667 8.14583 10.2708 8.4375 10.5625C8.72917 10.8542 9.08333 11 9.5 11V11M14 15.5C14.4167 15.5 14.7708 15.3542 15.0625 15.0625C15.3542 14.7708 15.5 14.4167 15.5 14C15.5 13.5833 15.3542 13.2292 15.0625 12.9375C14.7708 12.6458 14.4167 12.5 14 12.5C13.5833 12.5 13.2292 12.6458 12.9375 12.9375C12.6458 13.2292 12.5 13.5833 12.5 14C12.5 14.4167 12.6458 14.7708 12.9375 15.0625C13.2292 15.3542 13.5833 15.5 14 15.5V15.5M14 6.5C14.4167 6.5 14.7708 6.35417 15.0625 6.0625C15.3542 5.77083 15.5 5.41667 15.5 5C15.5 4.58333 15.3542 4.22917 15.0625 3.9375C14.7708 3.64583 14.4167 3.5 14 3.5C13.5833 3.5 13.2292 3.64583 12.9375 3.9375C12.6458 4.22917 12.5 4.58333 12.5 5C12.5 5.41667 12.6458 5.77083 12.9375 6.0625C13.2292 6.35417 13.5833 6.5 14 6.5V6.5M2.5 18.5C1.95 18.5 1.47917 18.3042 1.0875 17.9125C0.695833 17.5208 0.5 17.05 0.5 16.5V2.5C0.5 1.95 0.695833 1.47917 1.0875 1.0875C1.47917 0.695833 1.95 0.5 2.5 0.5H16.5C17.05 0.5 17.5208 0.695833 17.9125 1.0875C18.3042 1.47917 18.5 1.95 18.5 2.5V16.5C18.5 17.05 18.3042 17.5208 17.9125 17.9125C17.5208 18.3042 17.05 18.5 16.5 18.5H2.5V18.5" stroke="black" stroke-linejoin="bevel"/>
</svg>
