<svg width="22" height="12" viewBox="0 0 22 12" fill="none" xmlns="http://www.w3.org/2000/svg">
<path d="M6 12C4.33333 12 2.91667 11.4167 1.75 10.25C0.583333 9.08333 0 7.66667 0 6C0 4.33333 0.583333 2.91667 1.75 1.75C2.91667 0.583333 4.33333 0 6 0H16C17.6667 0 19.0833 0.583333 20.25 1.75C21.4167 2.91667 22 4.33333 22 6C22 7.66667 21.4167 9.08333 20.25 10.25C19.0833 11.4167 17.6667 12 16 12H6ZM16 9C16.8333 9 17.5417 8.70833 18.125 8.125C18.7083 7.54167 19 6.83333 19 6C19 5.16667 18.7083 4.45833 18.125 3.875C17.5417 3.29167 16.8333 3 16 3C15.1667 3 14.4583 3.29167 13.875 3.875C13.2917 4.45833 13 5.16667 13 6C13 6.83333 13.2917 7.54167 13.875 8.125C14.4583 8.70833 15.1667 9 16 9Z" fill="#059669"/>
</svg>
