<svg width="26" height="26" viewBox="0 0 26 26" fill="none" xmlns="http://www.w3.org/2000/svg">
<path d="M12.5312 25.0625C12.1979 25.0625 11.8802 25 11.5781 24.875C11.276 24.75 11 24.5729 10.75 24.3438L0.71875 14.3125C0.489583 14.0625 0.3125 13.7865 0.1875 13.4844C0.0625 13.1823 0 12.8646 0 12.5312C0 12.1979 0.0625 11.875 0.1875 11.5625C0.3125 11.25 0.489583 10.9792 0.71875 10.75L10.75 0.71875C11 0.46875 11.276 0.286458 11.5781 0.171875C11.8802 0.0572917 12.1979 0 12.5312 0C12.8646 0 13.1875 0.0572917 13.5 0.171875C13.8125 0.286458 14.0833 0.46875 14.3125 0.71875L24.3438 10.75C24.5938 10.9792 24.776 11.25 24.8906 11.5625C25.0052 11.875 25.0625 12.1979 25.0625 12.5312C25.0625 12.8646 25.0052 13.1823 24.8906 13.4844C24.776 13.7865 24.5938 14.0625 24.3438 14.3125L14.3125 24.3438C14.0833 24.5729 13.8125 24.75 13.5 24.875C13.1875 25 12.8646 25.0625 12.5312 25.0625ZM11.2812 13.7812H13.7812V6.28125H11.2812V13.7812ZM12.5312 17.5312C12.8854 17.5312 13.1823 17.4115 13.4219 17.1719C13.6615 16.9323 13.7812 16.6354 13.7812 16.2812C13.7812 15.9271 13.6615 15.6302 13.4219 15.3906C13.1823 15.151 12.8854 15.0312 12.5312 15.0312C12.1771 15.0312 11.8802 15.151 11.6406 15.3906C11.401 15.6302 11.2812 15.9271 11.2812 16.2812C11.2812 16.6354 11.401 16.9323 11.6406 17.1719C11.8802 17.4115 12.1771 17.5312 12.5312 17.5312Z" fill="#93000A"/>
</svg>
